<svg width="181" height="74" viewBox="0 0 181 74" fill="none" xmlns="http://www.w3.org/2000/svg">
<path d="M0.579546 73L7.82386 29.3636H21.9929C24.6349 29.3636 26.7869 29.8324 28.4489 30.7699C30.125 31.7074 31.2898 33.0213 31.9432 34.7116C32.5966 36.402 32.7315 38.3693 32.348 40.6136C32.0497 42.375 31.5028 43.9375 30.7074 45.3011C29.9261 46.6506 28.9531 47.7727 27.7884 48.6676C26.6236 49.5483 25.3381 50.1662 23.9318 50.5213L23.9105 50.777C25.3878 50.9048 26.6946 51.4375 27.831 52.375C28.9673 53.2983 29.7983 54.5554 30.3239 56.1463C30.8636 57.7372 30.956 59.5838 30.6009 61.6861C30.2315 63.9162 29.4219 65.8835 28.1719 67.5881C26.9219 69.2784 25.267 70.6065 23.2074 71.5724C21.1477 72.5241 18.7116 73 15.8991 73H0.579546ZM3.66903 70.5284H16.3253C19.6065 70.5284 22.2628 69.7045 24.294 68.0568C26.3253 66.4091 27.5682 64.2855 28.0227 61.6861C28.321 59.8537 28.1577 58.2131 27.5327 56.7642C26.9219 55.3153 25.9205 54.1719 24.5284 53.3338C23.1506 52.4815 21.4673 52.0554 19.4787 52.0554H6.73722L3.66903 70.5284ZM7.16335 49.6264H19.5852C21.4176 49.6264 23.0511 49.2216 24.4858 48.4119C25.9205 47.6023 27.0923 46.5156 28.0014 45.152C28.9105 43.7884 29.4929 42.2756 29.7486 40.6136C30.2031 37.9006 29.7273 35.7628 28.321 34.2003C26.9148 32.6236 24.6634 31.8352 21.5668 31.8352H10.0611L7.16335 49.6264ZM49.1005 29.3636L41.8562 73H39.1928L46.4371 29.3636H49.1005ZM89.9403 43C89.8693 41.4943 89.5781 40.0455 89.0668 38.6534C88.5554 37.2614 87.8026 36.0185 86.8082 34.9247C85.8139 33.8168 84.5568 32.9432 83.0369 32.304C81.5313 31.6506 79.7415 31.3239 77.6676 31.3239C74.8409 31.3239 72.0923 32.0909 69.4219 33.625C66.7656 35.1591 64.4574 37.4034 62.4972 40.358C60.5511 43.3125 59.2159 46.9205 58.4915 51.1818C57.8097 55.2585 57.8665 58.7812 58.6619 61.75C59.4716 64.7188 60.9347 67.0128 63.0511 68.6321C65.1676 70.2372 67.8452 71.0398 71.0838 71.0398C73.9105 71.0398 76.5455 70.3722 78.9886 69.0369C81.446 67.7017 83.5128 65.8054 85.1889 63.348C86.8651 60.8764 87.9659 57.9503 88.4915 54.5696L89.3438 55.017H74.5142L74.9616 52.5455H91.4744L91.027 55.017C90.402 58.8665 89.1165 62.1832 87.1705 64.9673C85.2386 67.7372 82.8523 69.8679 80.0114 71.3594C77.1847 72.8509 74.1023 73.5966 70.7642 73.5966C67.0142 73.5966 63.8963 72.6733 61.4105 70.8267C58.9247 68.9659 57.1918 66.3523 56.2116 62.9858C55.2315 59.6193 55.1179 55.6847 55.8707 51.1818C56.4247 47.8011 57.3693 44.7401 58.7045 41.9986C60.054 39.2429 61.7017 36.8778 63.6477 34.9034C65.608 32.929 67.8026 31.4162 70.2315 30.3651C72.6605 29.2997 75.2315 28.767 77.9446 28.767C80.4446 28.767 82.6108 29.179 84.4432 30.0028C86.2898 30.8125 87.8168 31.9062 89.0241 33.2841C90.2457 34.6477 91.1548 36.1747 91.7514 37.8651C92.3622 39.5412 92.6676 41.2528 92.6676 43H89.9403ZM180.721 0.272725V73H165.806L136.864 31.0256H136.403V73H118.825V0.272725H133.952L162.575 42.1761H163.178V0.272725H180.721Z" fill="#E40012"/>
</svg>
